<svg width="64" height="64" viewBox="0 0 64 64" fill="none" xmlns="http://www.w3.org/2000/svg">
<path fill-rule="evenodd" clip-rule="evenodd" d="M12.201 51.799C17.452 57.05 24.5739 60 32 60C39.4261 60 46.548 57.05 51.799 51.799C57.05 46.548 60 39.4261 60 32C60 24.5739 57.05 17.452 51.799 12.201C46.548 6.94999 39.4261 4 32 4C24.5739 4 17.452 6.94999 12.201 12.201C6.94999 17.452 4 24.5739 4 32C4 39.4261 6.94999 46.548 12.201 51.799ZM54.6274 9.37258C60.6286 15.3737 64 23.5131 64 32C64 40.4869 60.6286 48.6263 54.6274 54.6274C48.6263 60.6286 40.4869 64 32 64C23.5131 64 15.3737 60.6286 9.37258 54.6274C3.37142 48.6263 0 40.4869 0 32C0 23.5131 3.37142 15.3737 9.37258 9.37258C15.3737 3.37142 23.5131 0 32 0C40.4869 0 48.6263 3.37142 54.6274 9.37258ZM17.8579 29.9975C17.3268 29.9975 16.8174 30.2085 16.4419 30.584C16.0663 30.9595 15.8553 31.4689 15.8553 32C15.8553 32.5311 16.0663 33.0405 16.4419 33.416C16.8174 33.7915 17.3268 34.0025 17.8579 34.0025L41.0312 33.9997L33.2021 41.8288C32.827 42.2039 32.6163 42.7126 32.6163 43.243C32.6163 43.7734 32.827 44.2821 33.2021 44.6572C33.5772 45.0323 34.0859 45.243 34.6163 45.243C35.1467 45.243 35.6554 45.0323 36.0305 44.6572L47.2735 33.4142C47.6486 33.0391 47.8593 32.5304 47.8593 32C47.8593 31.4696 47.6486 30.9609 47.2735 30.5858L36.0305 19.3428C35.6554 18.9677 35.1467 18.757 34.6163 18.757C34.0859 18.757 33.5772 18.9677 33.2021 19.3428C32.827 19.7179 32.6163 20.2266 32.6163 20.757C32.6163 21.2874 32.827 21.7961 33.2021 22.1712L41.0312 30.0003L17.8579 29.9975Z" fill="#FFFEE6"/>
</svg>
