<svg width="64" height="64" viewBox="0 0 64 64" fill="none" xmlns="http://www.w3.org/2000/svg">
<path fill-rule="evenodd" clip-rule="evenodd" d="M51.799 51.799C46.548 57.05 39.4261 60 32 60C24.5739 60 17.452 57.05 12.201 51.799C6.94999 46.548 4 39.4261 4 32C4 24.5739 6.94999 17.452 12.201 12.201C17.452 6.94999 24.5739 4 32 4C39.4261 4 46.548 6.94999 51.799 12.201C57.05 17.452 60 24.5739 60 32C60 39.4261 57.05 46.548 51.799 51.799ZM9.37258 9.37258C3.37142 15.3737 0 23.5131 0 32C0 40.4869 3.37142 48.6263 9.37258 54.6274C15.3737 60.6286 23.5131 64 32 64C40.4869 64 48.6263 60.6286 54.6274 54.6274C60.6286 48.6263 64 40.4869 64 32C64 23.5131 60.6286 15.3737 54.6274 9.37258C48.6263 3.37142 40.4869 0 32 0C23.5131 0 15.3737 3.37142 9.37258 9.37258ZM46.1421 29.9975C46.6732 29.9975 47.1826 30.2085 47.5581 30.584C47.9337 30.9595 48.1447 31.4689 48.1447 32C48.1447 32.5311 47.9337 33.0405 47.5581 33.416C47.1826 33.7915 46.6732 34.0025 46.1421 34.0025L22.9688 33.9997L30.7979 41.8288C31.173 42.2039 31.3837 42.7126 31.3837 43.243C31.3837 43.7734 31.173 44.2821 30.7979 44.6572C30.4228 45.0323 29.9141 45.243 29.3837 45.243C28.8533 45.243 28.3446 45.0323 27.9695 44.6572L16.7265 33.4142C16.3514 33.0391 16.1407 32.5304 16.1407 32C16.1407 31.4696 16.3514 30.9609 16.7265 30.5858L27.9695 19.3428C28.3446 18.9677 28.8533 18.757 29.3837 18.757C29.9141 18.757 30.4228 18.9677 30.7979 19.3428C31.173 19.7179 31.3837 20.2266 31.3837 20.757C31.3837 21.2874 31.173 21.7961 30.7979 22.1712L22.9688 30.0003L46.1421 29.9975Z" fill="#FFFEE6"/>
</svg>
