<?xml version="1.0" encoding="iso-8859-1"?>
<!-- Uploaded to: SVG Repo, www.svgrepo.com, Generator: SVG Repo Mixer Tools -->
<svg fill="#000000" height="800px" width="800px" version="1.1" id="Layer_1" xmlns="http://www.w3.org/2000/svg" xmlns:xlink="http://www.w3.org/1999/xlink" 
	 viewBox="0 0 472.615 472.615" xml:space="preserve">
<g>
	<g>
		<path d="M399.3,179.692c-29.984,0.057-59.984,0.517-89.994,1.313L182.565,0h-66.816l85.4,185.271
			c-35.293,1.789-70.583,3.921-105.857,6.347L42.16,98.18H6.482l34.143,97.387c-17.54,0.637-31.654,18.562-31.654,40.719
			c0,22.164,14.121,40.092,31.668,40.721L6.482,374.432H42.16l53.151-93.471c35.269,2.431,70.554,4.573,105.841,6.37
			l-85.404,185.284h66.816l126.726-180.983c30.015,0.8,60.02,1.266,90.009,1.324c36.339-0.307,66.834-26.385,66.834-56.517
			c0-0.077,0-0.154,0-0.154C466.134,206.077,435.733,179.923,399.3,179.692z"/>
	</g>
</g>
</svg>