<?xml version="1.0" ?><!-- Uploaded to: SVG Repo, www.svgrepo.com, Generator: SVG Repo Mixer Tools -->
<svg width="800px" height="800px" viewBox="0 0 1000 1000" id="Layer_2" version="1.1" xml:space="preserve" xmlns="http://www.w3.org/2000/svg" xmlns:xlink="http://www.w3.org/1999/xlink"><path d="M158.575,620.74l21.78,42.26c10.49,20.34,31.45,33.12,54.33,33.12h545.56  c29.47,0,54.74-21.03,60.1-50l7.42-40.11h-226.25c-3.95,0-7.71-1.67-10.37-4.59l-30.83-33.92c-2.66-2.92-6.43-4.59-10.38-4.59  h-111.97c-5.45,0-10.69-2.11-14.61-5.91l-29.66-28.7c-3.02-2.93-7.07-4.56-11.27-4.56h-193.54c-4.01,0-7.88,1.48-10.86,4.171  L170.175,553c-11.74,11.07-17.94,26.22-17.94,41.6C152.235,603.48,154.305,612.45,158.575,620.74z M462.525,592.93h103.83  c4.69,0,8.5,3.8,8.5,8.5c0,4.69-3.81,8.5-8.5,8.5h-103.83c-4.7,0-8.5-3.81-8.5-8.5C454.025,596.73,457.825,592.93,462.525,592.93z   M346.175,557.54c1.54-1.54,3.66-2.49,6.01-2.49h28.84c4.69,0,8.5,3.8,8.5,8.5c0,4.69-3.81,8.5-8.5,8.5h-28.84  c-4.69,0-8.5-3.81-8.5-8.5C343.685,561.2,344.635,559.08,346.175,557.54z M277.425,557.54c1.54-1.54,3.67-2.49,6.01-2.49h28.84  c4.69,0,8.5,3.8,8.5,8.5c0,4.69-3.81,8.5-8.5,8.5h-28.84c-4.69,0-8.5-3.81-8.5-8.5C274.935,561.2,275.885,559.08,277.425,557.54z   M208.675,557.54c1.54-1.54,3.66-2.49,6.01-2.49h28.84c4.69,0,8.5,3.8,8.5,8.5c0,4.69-3.81,8.5-8.5,8.5h-28.84  c-4.69,0-8.5-3.81-8.5-8.5C206.185,561.2,207.135,559.08,208.675,557.54z" style="fill:#231F20;"/><path d="M425.525,516.09l29.66,28.7c0.75,0.72,1.74,1.12,2.78,1.12h82.33V380.43  c0-5.73-4.65-10.38-10.39-10.38h-165.41c-4.32,0-8.19,2.68-9.72,6.72l-48.91,129.97h96.56  C411.085,506.74,419.295,510.06,425.525,516.09z M437.525,407.7c1.54-1.54,3.67-2.49,6.01-2.49h28.829c4.7,0,8.5,3.81,8.5,8.5  c0,2.35-0.95,4.47-2.49,6.01c-1.54,1.54-3.66,2.49-6.01,2.49h-28.829c-4.69,0-8.5-3.8-8.5-8.5  C435.035,411.36,435.985,409.24,437.525,407.7z M437.525,460.7c1.54-1.54,3.67-2.49,6.01-2.49h63.17c4.69,0,8.5,3.81,8.5,8.5  c0,2.35-0.95,4.47-2.49,6.01c-1.54,1.54-3.66,2.49-6.01,2.49h-63.17c-4.69,0-8.5-3.8-8.5-8.5  C435.035,464.36,435.985,462.24,437.525,460.7z M369.095,407.7c1.54-1.54,3.66-2.49,6.01-2.49h28.83c4.7,0,8.5,3.81,8.5,8.5  c0,2.35-0.95,4.47-2.49,6.01c-1.53,1.54-3.66,2.49-6.01,2.49h-28.83c-4.69,0-8.5-3.8-8.5-8.5  C366.605,411.36,367.555,409.24,369.095,407.7z M366.605,466.71c0-2.35,0.95-4.47,2.49-6.01c1.54-1.54,3.66-2.49,6.01-2.49h28.83  c4.7,0,8.5,3.81,8.5,8.5c0,2.35-0.95,4.47-2.49,6.01c-1.53,1.54-3.66,2.49-6.01,2.49h-28.83  C370.415,475.21,366.605,471.41,366.605,466.71z" style="fill:#231F20;"/><path d="M557.295,458.21v87.7h12.64c8.72,0,17.09,3.71,22.95,10.16l29.95,32.94h23V464.95  c0-3.72-3.02-6.74-6.74-6.74H557.295z M621.715,493.06c-1.54,1.54-3.66,2.49-6.01,2.49h-28.84c-4.69,0-8.5-3.81-8.5-8.5  c0-2.35,0.95-4.47,2.49-6.01c1.54-1.54,3.66-2.49,6.01-2.49h28.84c4.69,0,8.5,3.8,8.5,8.5  C624.205,489.4,623.255,491.52,621.715,493.06z" style="fill:#231F20;"/><path d="M503.705,353.05v-22.165c7.63-2.103,13.242-9.075,13.242-17.374c0-5.319-4.312-9.631-9.631-9.631  h-75.892c-5.319,0-9.631,4.312-9.631,9.631c0,8.299,5.611,15.271,13.242,17.374v22.165H503.705z" style="fill:#231F20;"/><polygon points="778.637,410.547 676.925,410.547 673.735,436.047 778.637,436.047 " style="fill:#231F20;"/><path d="M654.865,586.87c-0.09,0.74-0.06,1.46,0.07,2.14h123.57c0.09-0.43,0.13-0.86,0.13-1.31V453.05  h-107.03L654.865,586.87z" style="fill:#231F20;"/><path d="M778.637,371.438c0-3.714-3.01-6.724-6.724-6.724h-83.317c-3.391,0-6.251,2.525-6.672,5.889  l-2.871,22.944h99.585V371.438z" style="fill:#231F20;"/><polygon points="230.525,480.22 297.685,480.22 307.275,454.72 233.715,454.72 " style="fill:#231F20;"/><path d="M324.525,408.88h-79.14c-3.39,0-6.25,2.53-6.671,5.89l-2.87,22.95h77.83L324.525,408.88z" style="fill:#231F20;"/></svg>