<?xml version="1.0" encoding="iso-8859-1"?>
<!-- Uploaded to: SVG Repo, www.svgrepo.com, Generator: SVG Repo Mixer Tools -->
<svg fill="#000000" height="800px" width="800px" version="1.1" id="Layer_1" xmlns="http://www.w3.org/2000/svg" xmlns:xlink="http://www.w3.org/1999/xlink" 
	 viewBox="0 0 512 512" xml:space="preserve">
<g>
	<g>
		<path d="M490.667,128h-64V85.333c0-11.782-9.551-21.333-21.333-21.333H384V21.333C384,9.551,374.449,0,362.667,0H149.333
			C137.551,0,128,9.551,128,21.333V64h-21.333c-11.782,0-21.333,9.551-21.333,21.333V128h-64C9.551,128,0,137.551,0,149.333v341.333
			C0,502.449,9.551,512,21.333,512h384c3.855,0,7.234-0.884,10.111-2.38c3.308-1.285,5.029-1.959,6.924-2.722
			c11.81-4.757,20.278-9.169,28.523-15.661C487.468,462.497,512,407.986,512,358.251v-72.832V149.333
			C512,137.551,502.449,128,490.667,128z M384,106.667V128h-42.667v-21.333H384z M170.667,42.667h170.667V64H320
			c-11.782,0-21.333,9.551-21.333,21.333V128h-85.333V85.333C213.333,73.551,203.782,64,192,64h-21.333V42.667z M128,106.667h42.667
			V128H128V106.667z M42.667,469.333V170.667h64H192h128h85.333h64v89.162c-0.135-0.033-0.271-0.065-0.406-0.098
			c-1.161-0.284-2.316-0.573-3.459-0.872c-0.075-0.02-0.149-0.041-0.225-0.06c-1.079-0.284-2.148-0.576-3.21-0.874
			c-0.295-0.083-0.59-0.166-0.884-0.25c-1.068-0.304-2.129-0.613-3.179-0.93c-0.061-0.018-0.123-0.036-0.184-0.054
			c-1.102-0.334-2.19-0.678-3.272-1.026c-0.282-0.091-0.563-0.182-0.844-0.274c-0.945-0.309-1.883-0.623-2.812-0.942
			c-0.147-0.05-0.296-0.1-0.442-0.15c-1.047-0.363-2.081-0.734-3.106-1.109c-0.261-0.096-0.52-0.193-0.78-0.289
			c-0.861-0.32-1.715-0.644-2.559-0.972c-0.191-0.074-0.384-0.147-0.574-0.222c-0.992-0.39-1.971-0.785-2.938-1.186
			c-0.232-0.096-0.46-0.193-0.69-0.289c-0.801-0.336-1.593-0.675-2.376-1.018c-0.211-0.092-0.424-0.184-0.633-0.277
			c-0.934-0.414-1.856-0.833-2.763-1.256c-0.192-0.089-0.38-0.18-0.57-0.27c-0.757-0.357-1.504-0.718-2.242-1.082
			c-0.214-0.106-0.43-0.211-0.643-0.317c-0.873-0.436-1.735-0.876-2.579-1.32c-0.144-0.076-0.285-0.153-0.428-0.229
			c-0.722-0.384-1.432-0.77-2.132-1.159c-0.211-0.117-0.422-0.234-0.631-0.352c-0.808-0.456-1.604-0.914-2.381-1.376
			c-0.084-0.05-0.164-0.1-0.247-0.15c-0.702-0.421-1.389-0.845-2.065-1.271c-0.197-0.124-0.393-0.248-0.587-0.373
			c-0.74-0.474-1.469-0.949-2.175-1.429c-7.234-4.912-16.734-4.912-23.968,0c-11.091,7.531-31.449,12.133-76.048,17.821
			c-10.652,1.358-18.635,10.423-18.635,21.162v85.333c0,1.391,0.025,2.783,0.064,4.175c0.012,0.427,0.03,0.854,0.046,1.28
			c0.036,0.991,0.08,1.982,0.135,2.974c0.026,0.465,0.052,0.93,0.082,1.395c0.068,1.051,0.148,2.101,0.237,3.151
			c0.03,0.354,0.055,0.708,0.087,1.062c0.127,1.388,0.271,2.774,0.435,4.161c0.036,0.302,0.078,0.603,0.116,0.905
			c0.136,1.097,0.281,2.194,0.439,3.289c0.066,0.457,0.136,0.914,0.206,1.371c0.15,0.979,0.309,1.958,0.477,2.935
			c0.076,0.44,0.149,0.881,0.228,1.321c0.22,1.224,0.453,2.446,0.701,3.666c0.033,0.161,0.061,0.322,0.094,0.482
			c0.284,1.376,0.588,2.749,0.906,4.118c0.093,0.398,0.191,0.795,0.287,1.193c0.238,0.992,0.484,1.983,0.74,2.971
			c0.118,0.456,0.238,0.911,0.359,1.367c0.267,0.999,0.545,1.995,0.831,2.99c0.108,0.378,0.213,0.757,0.324,1.134
			c0.397,1.349,0.809,2.695,1.239,4.035c0.071,0.221,0.147,0.44,0.219,0.661c0.366,1.125,0.743,2.247,1.132,3.364
			c0.15,0.432,0.305,0.862,0.459,1.293c0.334,0.936,0.676,1.869,1.026,2.8c0.162,0.431,0.323,0.861,0.488,1.291
			c0.414,1.076,0.84,2.147,1.275,3.215c0.099,0.244,0.194,0.49,0.295,0.733c0.537,1.3,1.091,2.592,1.658,3.878
			c0.153,0.348,0.313,0.692,0.468,1.038c0.428,0.952,0.862,1.901,1.306,2.844c0.201,0.427,0.404,0.853,0.609,1.279
			c0.437,0.91,0.883,1.815,1.336,2.717c0.188,0.374,0.373,0.75,0.564,1.123c0.639,1.25,1.289,2.493,1.956,3.725
			c0.055,0.102,0.113,0.202,0.169,0.304c0.616,1.132,1.246,2.255,1.887,3.371c0.219,0.382,0.443,0.761,0.665,1.141
			c0.5,0.855,1.006,1.706,1.52,2.551c0.241,0.396,0.482,0.792,0.726,1.186c0.571,0.923,1.152,1.838,1.74,2.748
			c0.173,0.268,0.343,0.54,0.518,0.807c0.761,1.164,1.536,2.317,2.324,3.458c0.19,0.276,0.386,0.547,0.578,0.822
			c0.61,0.873,1.227,1.74,1.853,2.599c0.271,0.372,0.544,0.741,0.818,1.111c0.585,0.79,1.178,1.573,1.776,2.35
			c0.263,0.342,0.524,0.685,0.789,1.024c0.81,1.034,1.628,2.059,2.461,3.07c0.043,0.053,0.085,0.107,0.129,0.159
			c0.007,0.009,0.014,0.018,0.022,0.027H42.667z M469.333,358.251c0,37.077-18.908,79.09-44.818,99.45
			c-4.46,3.511-9.705,6.244-18.087,9.62c-0.367,0.148-0.725,0.291-1.096,0.439c-0.035-0.014-0.07-0.028-0.105-0.042
			c-0.355-0.141-0.702-0.28-1.054-0.422c-8.351-3.364-13.579-6.09-17.99-9.57c-26.754-21.022-44.851-59.079-44.851-95.059v-66.674
			c30.133-4.303,48.948-8.526,63.528-15.297c1.27,0.703,2.57,1.395,3.886,2.079c0.409,0.213,0.827,0.422,1.24,0.633
			c0.932,0.476,1.873,0.948,2.827,1.414c0.474,0.232,0.951,0.462,1.43,0.692c0.963,0.461,1.937,0.915,2.92,1.366
			c0.438,0.201,0.872,0.404,1.315,0.603c1.409,0.634,2.833,1.259,4.281,1.871c0.01,0.004,0.02,0.008,0.03,0.013
			c1.452,0.613,2.928,1.212,4.417,1.802c0.465,0.184,0.938,0.364,1.406,0.546c1.052,0.409,2.112,0.813,3.182,1.21
			c0.536,0.199,1.074,0.396,1.615,0.592c1.076,0.39,2.162,0.773,3.255,1.151c0.491,0.17,0.978,0.342,1.472,0.509
			c1.572,0.532,3.156,1.055,4.76,1.56c0.002,0.001,0.005,0.002,0.007,0.002c1.606,0.506,3.231,0.995,4.866,1.474
			c0.508,0.149,1.022,0.292,1.534,0.438c1.153,0.329,2.31,0.653,3.477,0.968c0.582,0.157,1.165,0.313,1.75,0.466
			c1.17,0.307,2.348,0.606,3.53,0.899c0.531,0.132,1.06,0.266,1.594,0.395c1.692,0.408,3.392,0.804,5.107,1.181
			c0.007,0.002,0.015,0.003,0.022,0.005c1.508,0.331,3.025,0.65,4.55,0.957V358.251z"/>
	</g>
</g>
</svg>